<?xml version="1.0" encoding="UTF-8" standalone="no"?>
<!-- Created with Inkscape (http://www.inkscape.org/) -->

<svg
   xmlns:dc="http://purl.org/dc/elements/1.1/"
   xmlns:cc="http://creativecommons.org/ns#"
   xmlns:rdf="http://www.w3.org/1999/02/22-rdf-syntax-ns#"
   xmlns:svg="http://www.w3.org/2000/svg"
   xmlns="http://www.w3.org/2000/svg"
   xmlns:sodipodi="http://sodipodi.sourceforge.net/DTD/sodipodi-0.dtd"
   xmlns:inkscape="http://www.inkscape.org/namespaces/inkscape"
   version="1.0"
   width="192"
   height="191.99998"
   id="svg2811"
   inkscape:version="0.92.3 (2405546, 2018-03-11)"
   sodipodi:docname="square.svg"
   inkscape:export-filename="/home/pacha/GitHub/gravity/docs/apple.png"
   inkscape:export-xdpi="90"
   inkscape:export-ydpi="90">
  <metadata
     id="metadata17">
    <rdf:RDF>
      <cc:Work
         rdf:about="">
        <dc:format>image/svg+xml</dc:format>
        <dc:type
           rdf:resource="http://purl.org/dc/dcmitype/StillImage" />
        <dc:title />
      </cc:Work>
    </rdf:RDF>
  </metadata>
  <sodipodi:namedview
     pagecolor="#ffffff"
     bordercolor="#666666"
     borderopacity="1"
     objecttolerance="10"
     gridtolerance="10"
     guidetolerance="10"
     inkscape:pageopacity="0"
     inkscape:pageshadow="2"
     inkscape:window-width="1600"
     inkscape:window-height="832"
     id="namedview15"
     showgrid="false"
     fit-margin-top="0"
     fit-margin-left="0"
     fit-margin-right="0"
     fit-margin-bottom="0"
     inkscape:zoom="2.0763602"
     inkscape:cx="138.38225"
     inkscape:cy="91.497711"
     inkscape:window-x="0"
     inkscape:window-y="32"
     inkscape:window-maximized="1"
     inkscape:current-layer="g858"
     showguides="true"
     inkscape:guide-bbox="true" />
  <defs
     id="defs2813">
    <inkscape:perspective
       sodipodi:type="inkscape:persp3d"
       inkscape:vp_x="0 : 882.13641 : 1"
       inkscape:vp_y="0 : 1000 : 0"
       inkscape:vp_z="1500 : 882.13641 : 1"
       inkscape:persp3d-origin="750 : 588.09094 : 1"
       id="perspective4362" />
    <clipPath
       id="clp12">
      <path
         d="m 45.315,71.927 h 12.92 v 15.867 h -12.92 z"
         id="path184"
         inkscape:connector-curvature="0" />
    </clipPath>
    <clipPath
       id="clp21">
      <path
         d="m 123.91,72.178 h 26.23 v 15.294 h -26.23 z"
         id="path592"
         inkscape:connector-curvature="0" />
    </clipPath>
    <clipPath
       id="clp9">
      <path
         d="m 413.96,49.857 h 31.76 v 8.719 h -31.76 z"
         id="path100"
         inkscape:connector-curvature="0" />
    </clipPath>
    <marker
       style="overflow:visible"
       id="Arrow2Lend"
       orient="auto"
       refY="0"
       refX="0">
      <path
         style="font-size:12px;fill-rule:evenodd;stroke-width:0.625;stroke-linejoin:round"
         id="path3796"
         transform="matrix(-1.1,0,0,-1.1,-1.1,0)"
         d="M 8.7185878,4.0337352 -2.2072895,0.01601326 8.7185884,-4.0017078 c -1.7454984,2.3720609 -1.7354408,5.6174519 -6e-7,8.035443 z"
         inkscape:connector-curvature="0" />
    </marker>
  </defs>
  <g
     transform="translate(2421.9707,-3009.8204)"
     id="layer1">
    <g
       transform="translate(19.48863,19.49672)"
       id="g25472">
      <g
         id="g4353"
         transform="matrix(0.67573771,0,0,0.67573771,374.45067,977.3331)">
        <g
           transform="translate(80.542606)"
           id="g4347">
          <rect
             style="opacity:1;fill:#47475c;fill-opacity:1;stroke:#e6e6e6;stroke-width:2.97223616;stroke-linecap:round;stroke-linejoin:bevel;stroke-miterlimit:4;stroke-dasharray:none;stroke-opacity:1"
             id="rect34"
             width="281.16168"
             height="281.16165"
             x="-4246.2207"
             y="2980.4387" />
          <g
             id="g2840"
             transform="matrix(2.0737022,0,0,2.0737022,-4241.9778,3009.3332)">
            <g
               id="g858"
               transform="translate(0,2.3339353)">
              <g
                 id="symbol"
                 transform="matrix(-1.1393598,0,0,1.1393598,109.47028,24.431313)">
                <g
                   style="stroke:none"
                   transform="matrix(0.69860595,0,0,0.69860595,104.12725,365.16199)"
                   id="g3195">
                  <path
                     style="fill:#30426b;fill-opacity:1;fill-rule:evenodd;stroke:none;stroke-width:0.86808175px;stroke-linecap:butt;stroke-linejoin:miter;stroke-opacity:1"
                     d="m -66.903755,-524.17891 2,14.99999 -42.388085,20.47324 -4.1194,-13.97633 z"
                     id="path3912"
                     inkscape:connector-curvature="0"
                     sodipodi:nodetypes="ccccc" />
                  <path
                     sodipodi:nodetypes="ccccc"
                     inkscape:connector-curvature="0"
                     id="path3914"
                     d="m -107.29184,-488.70568 -48.03982,23.203 9.30349,-20.45952 34.61693,-16.71981 z"
                     style="fill:#30426b;fill-opacity:1;fill-rule:evenodd;stroke:none;stroke-width:0.86808175px;stroke-linecap:butt;stroke-linejoin:miter;stroke-opacity:1" />
                  <path
                     sodipodi:nodetypes="ccccc"
                     inkscape:connector-curvature="0"
                     id="path3886"
                     d="m -62.903755,-522.17891 -2,12.99999 -90.427905,43.67624 13.30349,-18.45952 z"
                     style="fill:#79b6ff;fill-opacity:1;fill-rule:evenodd;stroke:none;stroke-width:0.86808175px;stroke-linecap:butt;stroke-linejoin:miter;stroke-opacity:1" />
                  <path
                     style="fill:#78758c;fill-opacity:1;fill-rule:evenodd;stroke:none;stroke-width:0.86808175px;stroke-linecap:butt;stroke-linejoin:miter;stroke-opacity:1"
                     d="m -62.903755,-522.17891 -2,12.99999 -90.427905,43.67624 13.30349,-18.45952 z"
                     id="path3892"
                     inkscape:connector-curvature="0"
                     sodipodi:nodetypes="ccccc" />
                  <path
                     sodipodi:nodetypes="cccc"
                     inkscape:connector-curvature="0"
                     id="path3888"
                     d="m -78.117705,-483.26771 -29.293535,-17.34119 -34.61693,16.71981 z"
                     style="fill:#6699a1;fill-opacity:1;fill-rule:evenodd;stroke:none;stroke-width:0.86808175px;stroke-linecap:butt;stroke-linejoin:miter;stroke-opacity:1" />
                  <path
                     style="fill:#6699a1;fill-opacity:1;fill-rule:evenodd;stroke:none;stroke-width:0.86808175px;stroke-linecap:butt;stroke-linejoin:miter;stroke-opacity:1"
                     d="m -134.73268,-520.18361 -11.29549,34.22141 34.61693,-16.71981 z"
                     id="path3896"
                     inkscape:connector-curvature="0"
                     sodipodi:nodetypes="cccc" />
                  <path
                     sodipodi:nodetypes="ccccc"
                     inkscape:connector-curvature="0"
                     id="path3908"
                     d="m -66.903755,-524.17891 -25.34046,-15.89848 -42.488465,19.89378 23.32144,17.5016 z"
                     style="fill:#a3edba;fill-opacity:1;fill-rule:evenodd;stroke:none;stroke-width:0.86808175px;stroke-linecap:butt;stroke-linejoin:miter;stroke-opacity:1" />
                  <path
                     style="fill:#8087e8;fill-opacity:1;fill-rule:evenodd;stroke:none;stroke-width:0.86808175px;stroke-linecap:butt;stroke-linejoin:miter;stroke-opacity:1"
                     d="m -78.117705,-483.26771 45.21395,-21.83812 -30,-16.99997 -44.507485,21.4969 z"
                     id="path3910"
                     inkscape:connector-curvature="0"
                     sodipodi:nodetypes="ccccc" />
                </g>
              </g>
              <g
                 aria-label="HIGHCHARTER"
                 style="font-style:normal;font-weight:normal;font-size:17.70765495px;line-height:1.25;font-family:sans-serif;letter-spacing:0px;word-spacing:0px;fill:#e6e6e6;fill-opacity:1;stroke:none;stroke-width:0.44269139"
                 id="text3205">
                <path
                   d="m 22.249918,88.747776 0.03542,3.541531 h -1.398905 l 0.07083,-3.417578 -0.01771,-1.699935 -3.151962,-0.01771 -2.886348,0.01771 -0.01771,1.575982 0.05312,3.541531 h -1.398905 l 0.05312,-3.417578 -0.05312,-7.933029 h 1.416613 l -0.05312,5.028974 3.010301,0.01771 3.028009,-0.01771 -0.05312,-5.028974 h 1.43432 z"
                   style="font-style:normal;font-variant:normal;font-weight:normal;font-stretch:normal;font-family:'Alegreya Sans SC';-inkscape-font-specification:'Alegreya Sans SC';fill:#e6e6e6;stroke-width:0.44269139"
                   id="path34" />
                <path
                   d="m 26.988375,88.747776 0.07083,3.541531 h -1.43432 l 0.08854,-3.417578 -0.08854,-7.933029 h 1.452028 z"
                   style="font-style:normal;font-variant:normal;font-weight:normal;font-stretch:normal;font-family:'Alegreya Sans SC';-inkscape-font-specification:'Alegreya Sans SC';fill:#e6e6e6;stroke-width:0.44269139"
                   id="path36" />
                <path
                   d="m 34.602667,80.850162 q 1.788473,0 3.329039,0.796844 l -0.283323,1.345782 -0.177076,0.03542 q -0.849968,-0.53123 -1.575982,-0.761429 -0.708306,-0.2302 -1.50515,-0.2302 -3.842561,0 -3.842561,4.745652 0,2.284287 0.885382,3.364454 0.903091,1.06246 2.780102,1.06246 0.495814,0 0.991629,-0.08854 0.513522,-0.08854 1.310366,-0.336445 l 0.03542,-1.328074 -0.01771,-1.699935 1.328074,-0.106246 -0.03542,1.611397 0.07083,2.479071 q -1.150997,0.354153 -2.03638,0.513522 -0.885383,0.159369 -1.717642,0.159369 -2.532195,0 -3.807146,-1.43432 -1.257244,-1.43432 -1.257244,-4.143591 0,-2.921763 1.43432,-4.444621 1.43432,-1.540566 4.090469,-1.540566 z"
                   style="font-style:normal;font-variant:normal;font-weight:normal;font-stretch:normal;font-family:'Alegreya Sans SC';-inkscape-font-specification:'Alegreya Sans SC';fill:#e6e6e6;stroke-width:0.44269139"
                   id="path38" />
                <path
                   d="m 49.399349,88.747776 0.03542,3.541531 h -1.398905 l 0.07083,-3.417578 -0.01771,-1.699935 -3.151962,-0.01771 -2.886348,0.01771 -0.01771,1.575982 0.05312,3.541531 h -1.398904 l 0.05312,-3.417578 -0.05312,-7.933029 h 1.416612 l -0.05312,5.028974 3.010301,0.01771 3.028009,-0.01771 -0.05312,-5.028974 h 1.434321 z"
                   style="font-style:normal;font-variant:normal;font-weight:normal;font-stretch:normal;font-family:'Alegreya Sans SC';-inkscape-font-specification:'Alegreya Sans SC';fill:#e6e6e6;stroke-width:0.44269139"
                   id="path40" />
                <path
                   d="m 56.518105,80.850162 q 1.788473,0 3.09884,0.849967 l -0.283323,1.292659 -0.159369,0.03542 q -1.186412,-0.991629 -2.726978,-0.991629 -1.682228,0 -2.585318,1.168706 -0.90309,1.150997 -0.90309,3.382162 0,2.248872 0.90309,3.435285 0.90309,1.186413 2.549902,1.186413 0.779137,0 1.540566,-0.283323 0.779137,-0.283322 1.416613,-0.796844 l 0.177076,0.08854 -0.123953,1.345782 q -1.540566,0.849967 -3.134255,0.849967 -2.284288,0 -3.541531,-1.469735 -1.257244,-1.487443 -1.257244,-4.23213 0,-2.815517 1.310367,-4.338375 1.310366,-1.522858 3.718607,-1.522858 z"
                   style="font-style:normal;font-variant:normal;font-weight:normal;font-stretch:normal;font-family:'Alegreya Sans SC';-inkscape-font-specification:'Alegreya Sans SC';fill:#e6e6e6;stroke-width:0.44269139"
                   id="path42" />
                <path
                   d="m 70.392606,88.747776 0.03542,3.541531 h -1.398905 l 0.07083,-3.417578 -0.01771,-1.699935 -3.151963,-0.01771 -2.886347,0.01771 -0.01771,1.575982 0.05312,3.541531 H 61.68044 l 0.05312,-3.417578 -0.05312,-7.933029 h 1.416613 l -0.05312,5.028974 3.010301,0.01771 3.028009,-0.01771 -0.05312,-5.028974 h 1.43432 z"
                   style="font-style:normal;font-variant:normal;font-weight:normal;font-stretch:normal;font-family:'Alegreya Sans SC';-inkscape-font-specification:'Alegreya Sans SC';fill:#e6e6e6;stroke-width:0.44269139"
                   id="path44" />
                <path
                   d="m 81.966216,92.289307 h -1.452028 l -0.265614,-1.13329 -0.637476,-1.947842 -2.549902,-0.05312 -2.301995,0.05312 -0.690599,1.877011 -0.283322,1.204121 H 72.368667 L 76.529966,80.9387 h 1.646812 z M 79.22153,88.004054 77.379933,82.408435 H 77.25598 l -2.054088,5.595619 1.983257,0.03542 z"
                   style="font-style:normal;font-variant:normal;font-weight:normal;font-stretch:normal;font-family:'Alegreya Sans SC';-inkscape-font-specification:'Alegreya Sans SC';fill:#e6e6e6;stroke-width:0.44269139"
                   id="path46" />
                <path
                   d="m 88.626506,87.703024 q 1.168705,1.930134 2.939471,4.249837 l -0.01771,0.177077 q -0.637476,0.247907 -1.310367,0.318738 L 90.043118,92.324722 Q 88.591091,90.14668 87.440093,88.074885 h -2.071796 v 0.672891 l 0.07083,3.541531 h -1.43432 l 0.08854,-3.417578 -0.08854,-7.933029 3.4707,-0.01771 q 1.66452,0 2.56761,0.849968 0.920798,0.832259 0.920798,2.390533 0,1.168705 -0.619768,2.107211 -0.60206,0.920798 -1.717642,1.43432 z m -3.240501,-0.83226 2.124919,0.05312 q 1.983257,-0.566645 1.983257,-2.63844 0,-1.080167 -0.584353,-1.611397 -0.584352,-0.548937 -1.753058,-0.584353 l -1.717642,0.05312 z"
                   style="font-style:normal;font-variant:normal;font-weight:normal;font-stretch:normal;font-family:'Alegreya Sans SC';-inkscape-font-specification:'Alegreya Sans SC';fill:#e6e6e6;stroke-width:0.44269139"
                   id="path48" />
                <path
                   d="M 99.827986,81.080361 99.72174,82.178236 97.738483,82.07199 h -1.150998 l -0.05312,6.675786 0.05312,3.541531 h -1.43432 l 0.106246,-3.417578 -0.08854,-6.799739 h -1.150998 l -2.018672,0.106246 -0.08854,-0.141662 0.106246,-1.097874 h 7.70283 z"
                   style="font-style:normal;font-variant:normal;font-weight:normal;font-stretch:normal;font-family:'Alegreya Sans SC';-inkscape-font-specification:'Alegreya Sans SC';fill:#e6e6e6;stroke-width:0.44269139"
                   id="path50" />
                <path
                   d="m 108.33181,91.191432 -0.10625,1.097875 h -6.37475 l 0.0885,-3.417578 -0.0885,-7.933029 h 6.39246 l 0.0708,0.141661 -0.10624,1.097875 -2.67386,-0.05312 -2.24887,0.03542 -0.0354,3.718608 2.12492,0.03542 1.87701,-0.05312 0.10625,0.123953 -0.12395,1.097875 -1.98326,-0.03542 -2.01867,0.01771 -0.0177,1.682228 0.0531,2.355118 2.24887,0.01771 2.72698,-0.07083 z"
                   style="font-style:normal;font-variant:normal;font-weight:normal;font-stretch:normal;font-family:'Alegreya Sans SC';-inkscape-font-specification:'Alegreya Sans SC';fill:#e6e6e6;stroke-width:0.44269139"
                   id="path52" />
                <path
                   d="m 115.01506,87.703024 q 1.16871,1.930134 2.93947,4.249837 l -0.0177,0.177077 q -0.63748,0.247907 -1.31037,0.318738 l -0.19478,-0.123954 q -1.45203,-2.178042 -2.60303,-4.249837 h -2.0718 v 0.672891 l 0.0708,3.541531 h -1.43432 l 0.0885,-3.417578 -0.0885,-7.933029 3.4707,-0.01771 q 1.66452,0 2.56761,0.849968 0.92079,0.832259 0.92079,2.390533 0,1.168705 -0.61976,2.107211 -0.60206,0.920798 -1.71765,1.43432 z m -3.2405,-0.83226 2.12492,0.05312 q 1.98326,-0.566645 1.98326,-2.63844 0,-1.080167 -0.58435,-1.611397 -0.58436,-0.548937 -1.75306,-0.584353 l -1.71764,0.05312 z"
                   style="font-style:normal;font-variant:normal;font-weight:normal;font-stretch:normal;font-family:'Alegreya Sans SC';-inkscape-font-specification:'Alegreya Sans SC';fill:#e6e6e6;stroke-width:0.44269139"
                   id="path54" />
              </g>
            </g>
          </g>
        </g>
      </g>
    </g>
  </g>
</svg>
